<svg xmlns="http://www.w3.org/2000/svg" width="22" height="22" viewBox="0 0 22 22"><g><path xmlns="http://www.w3.org/2000/svg" d="m4 13c-.26901 0-.50292-.0994-.70175-.2982-.19883-.1989-.29825-.4328-.29825-.7018 0-.2807.09942-.5146.29825-.7018.19883-.1988.43274-.2982.70175-.2982h16c.2807 0 .5146.0994.7018.2982.1988.1872.2982.4211.2982.7018 0 .269-.0994.5029-.2982.7018-.1872.1988-.4211.2982-.7018.2982zm9.7018 6.7018c-.1755.1988-.4094.2982-.7018.2982-.269 0-.5029-.0994-.7018-.2982-.1988-.1989-.2982-.4328-.2982-.7018 0-.2924.0994-.5263.2982-.7018l6.8948-6.8947c.0585-.0585.0994.0292.1228.2632.0234.2222.0234.4503 0 .6842-.0234.2222-.0643.3041-.1228.2456l-6.8948-6.89475c-.1988-.18713-.2982-.42105-.2982-.70175s.0994-.51462.2982-.70176c.1989-.19882.4328-.29824.7018-.29824.2924 0 .5263.09942.7018.29824l6.8947 6.89476c.2222.2105.3333.4795.3333.807 0 .3158-.1111.5848-.3333.807z"></path></g></svg>